<svg width="24" height="24" viewBox="0 0 24 24" fill="none" xmlns="http://www.w3.org/2000/svg">
<mask id="mask0_6_8" style="mask-type:alpha" maskUnits="userSpaceOnUse" x="0" y="0" width="24" height="24">
<rect width="24" height="24" fill="#D9D9D9"/>
</mask>
<g mask="url(#mask0_6_8)">
<path d="M12 8.69999C10.2 8.69999 8.7 10.2 8.7 12L2 5.29999H8.7L12 8.69999Z" fill="#8958E1"/>
<path d="M22 5.29999L15.3 12C15.3 10.2 13.8 8.69999 12 8.69999L15.3 5.39999H22V5.29999Z" fill="#00ECD2"/>
<path d="M22 18.7H16.3L14.5 14.2C15 13.6 15.3 12.8 15.3 12L22 18.7Z" fill="#8958E1"/>
<path d="M9.5 14.2L7.7 18.7H2L8.7 12C8.7 12.8 8.9 13.6 9.5 14.2Z" fill="#FD8DDD"/>
<path d="M9.60001 17.3L11 13.7C10.6 13.5 10.3 13.2 10.1 12.7C10 12.4 10 12 10.1 11.5C10.2 11.1 10.5 10.7 10.8 10.4C11.2 10.1 11.6 10 12 10C12.4 10 12.9 10.1 13.2 10.4C13.6 10.7 13.8 11.1 13.9 11.5C14 11.9 14 12.4 13.8 12.8C13.6 13.2 13.3 13.5 12.9 13.8L14.3 17.4H9.60001V17.3Z" fill="#8958E1"/>
</g>
</svg>
