<svg width="46" height="46" viewBox="0 0 46 46" fill="none" xmlns="http://www.w3.org/2000/svg">
<circle cx="23" cy="23" r="23" fill="black" fill-opacity="0.04"/>
<mask id="mask0_1_13" style="mask-type:alpha" maskUnits="userSpaceOnUse" x="11" y="11" width="24" height="24">
<rect x="11" y="11" width="24" height="24" fill="#D9D9D9"/>
</mask>
<g mask="url(#mask0_1_13)">
<path d="M25 24C25.5667 24 26.0417 23.804 26.425 23.412C26.8083 23.0207 27 22.55 27 22H31V15H19V22H23C23 22.55 23.196 23.0207 23.588 23.412C23.9793 23.804 24.45 24 25 24ZM19 29C18.45 29 17.9793 28.8043 17.588 28.413C17.196 28.021 17 27.55 17 27V15C17 14.45 17.196 13.979 17.588 13.587C17.9793 13.1957 18.45 13 19 13H31C31.55 13 32.021 13.1957 32.413 13.587C32.8043 13.979 33 14.45 33 15V27C33 27.55 32.8043 28.021 32.413 28.413C32.021 28.8043 31.55 29 31 29H19ZM15 33C14.45 33 13.9793 32.8043 13.588 32.413C13.196 32.021 13 31.55 13 31V17H15V31H29V33H15Z" fill="black" fill-opacity="0.2"/>
</g>
</svg>
