<svg width="36" height="36" viewBox="0 0 36 36" fill="none" xmlns="http://www.w3.org/2000/svg">
<circle cx="18" cy="18" r="18" fill="black" fill-opacity="0.04"/>
<mask id="mask0_1_146" style="mask-type:alpha" maskUnits="userSpaceOnUse" x="8" y="8" width="20" height="20">
<rect x="8" y="8" width="20" height="20" fill="#D9D9D9"/>
</mask>
<g mask="url(#mask0_1_146)">
<path d="M15.5 24C15.0833 24 14.7293 23.854 14.438 23.562C14.146 23.2707 14 22.9167 14 22.5C14 22.0833 14.146 21.7293 14.438 21.438C14.7293 21.146 15.0833 21 15.5 21C15.9167 21 16.2707 21.146 16.562 21.438C16.854 21.7293 17 22.0833 17 22.5C17 22.9167 16.854 23.2707 16.562 23.562C16.2707 23.854 15.9167 24 15.5 24ZM20.5 24C20.0833 24 19.7293 23.854 19.438 23.562C19.146 23.2707 19 22.9167 19 22.5C19 22.0833 19.146 21.7293 19.438 21.438C19.7293 21.146 20.0833 21 20.5 21C20.9167 21 21.2707 21.146 21.562 21.438C21.854 21.7293 22 22.0833 22 22.5C22 22.9167 21.854 23.2707 21.562 23.562C21.2707 23.854 20.9167 24 20.5 24ZM15.5 19.5C15.0833 19.5 14.7293 19.354 14.438 19.062C14.146 18.7707 14 18.4167 14 18C14 17.5833 14.146 17.2293 14.438 16.938C14.7293 16.646 15.0833 16.5 15.5 16.5C15.9167 16.5 16.2707 16.646 16.562 16.938C16.854 17.2293 17 17.5833 17 18C17 18.4167 16.854 18.7707 16.562 19.062C16.2707 19.354 15.9167 19.5 15.5 19.5ZM20.5 19.5C20.0833 19.5 19.7293 19.354 19.438 19.062C19.146 18.7707 19 18.4167 19 18C19 17.5833 19.146 17.2293 19.438 16.938C19.7293 16.646 20.0833 16.5 20.5 16.5C20.9167 16.5 21.2707 16.646 21.562 16.938C21.854 17.2293 22 17.5833 22 18C22 18.4167 21.854 18.7707 21.562 19.062C21.2707 19.354 20.9167 19.5 20.5 19.5ZM15.5 15C15.0833 15 14.7293 14.854 14.438 14.562C14.146 14.2707 14 13.9167 14 13.5C14 13.0833 14.146 12.7293 14.438 12.438C14.7293 12.146 15.0833 12 15.5 12C15.9167 12 16.2707 12.146 16.562 12.438C16.854 12.7293 17 13.0833 17 13.5C17 13.9167 16.854 14.2707 16.562 14.562C16.2707 14.854 15.9167 15 15.5 15ZM20.5 15C20.0833 15 19.7293 14.854 19.438 14.562C19.146 14.2707 19 13.9167 19 13.5C19 13.0833 19.146 12.7293 19.438 12.438C19.7293 12.146 20.0833 12 20.5 12C20.9167 12 21.2707 12.146 21.562 12.438C21.854 12.7293 22 13.0833 22 13.5C22 13.9167 21.854 14.2707 21.562 14.562C21.2707 14.854 20.9167 15 20.5 15Z" fill="black" fill-opacity="0.2"/>
</g>
</svg>
