<svg width="144" height="16" viewBox="0 0 144 16" fill="none" xmlns="http://www.w3.org/2000/svg">
<path d="M0.118969 6.488C0.118969 9.918 2.31697 11.78 6.33497 11.78C10.017 11.78 12.103 10.184 12.397 7.594H9.31697C9.12097 8.532 8.18297 9.316 6.33497 9.316C4.20697 9.316 3.15697 8.252 3.15697 6.488C3.15697 4.738 4.19297 3.688 6.33497 3.688C8.18297 3.688 9.12097 4.458 9.31697 5.382H12.397C12.103 2.806 10.017 1.224 6.33497 1.224C2.31697 1.224 0.118969 3.072 0.118969 6.488ZM20.2868 2.904C18.8308 2.904 17.6828 3.394 16.6328 4.878V3.184H13.9308V11.5H16.6328V6.992C17.9908 5.55 19.1808 5.27 20.2168 5.27C20.9168 5.27 21.5048 5.354 22.3868 5.648V3.282C21.7288 3.044 21.1268 2.904 20.2868 2.904ZM29.5032 9.708C27.5712 9.708 26.4232 9.232 26.2132 7.846H35.1452C35.1452 4.346 32.7372 2.904 29.2792 2.904C25.9192 2.904 23.4412 4.374 23.4412 7.342C23.4412 10.31 25.7932 11.78 29.4192 11.78C32.7232 11.78 34.5152 10.604 35.0612 8.602H32.3592C32.0232 9.26 31.2672 9.708 29.5032 9.708ZM29.2792 4.794C30.9032 4.794 31.9392 5.214 32.3032 6.306H26.3252C26.6892 5.214 27.7252 4.794 29.2792 4.794ZM42.6205 2.904C40.5485 2.904 38.7145 3.212 36.9365 3.66L37.4545 5.564C39.4005 5.06 40.8005 4.878 42.1725 4.878C43.5445 4.878 45.0845 5.144 45.1685 6.6C43.9925 6.32 42.6065 6.096 41.1365 6.096C38.6865 6.096 36.2505 6.726 36.2505 8.966C36.2505 10.926 37.8045 11.682 40.1285 11.682C41.8225 11.682 43.6285 11.262 45.1685 10.422V11.5H47.8705V7.244C47.8425 4.038 46.1205 2.904 42.6205 2.904ZM41.0385 9.708C39.7225 9.708 39.0925 9.512 39.0925 8.826C39.0925 8.14 39.8905 7.874 41.4725 7.874C42.8165 7.874 44.0765 8.056 45.1685 8.294V9.008C44.0345 9.316 42.1585 9.708 41.0385 9.708ZM57.1329 3.184H53.4369V0.762L50.7349 1.518V3.184H48.7889V5.256H50.7349V8.63C50.7349 10.884 51.8549 11.78 54.3609 11.78C55.3829 11.78 56.2789 11.64 57.1329 11.472V9.274C56.1669 9.456 55.6909 9.512 54.9909 9.512C53.7449 9.512 53.4369 9.008 53.4369 7.86V5.256H57.1329V3.184ZM58.8703 2.26H61.5723V0.3H58.8703V2.26ZM58.8703 11.5H61.5723V3.184H58.8703V11.5ZM66.2071 11.5V8.224C66.2071 6.166 67.6211 5.172 69.8471 5.172C72.0731 5.172 72.7871 6.152 72.7871 8.07V11.5H75.4751V7.16C75.4611 4.038 73.6971 2.904 71.0371 2.904C68.6991 2.904 67.2431 3.772 66.2071 5.088V3.184H63.5051V11.5H66.2071ZM85.8426 4.612C85.0026 3.436 83.5326 2.904 81.8106 2.904C79.3886 2.904 76.9666 4.08 76.9666 7.244C76.9666 10.408 79.3886 11.584 81.8106 11.584C83.5326 11.584 85.0026 11.052 85.8426 9.876V10.506C85.8426 12.354 84.8206 12.97 82.7206 12.97C81.1246 12.97 79.5706 12.704 77.9046 12.368L77.5966 14.44C79.0946 14.79 81.0406 15.14 83.2946 15.14C86.7386 15.14 88.5166 13.81 88.5306 10.562V3.184H85.8426V4.612ZM82.8186 9.316C80.7326 9.316 79.7946 8.56 79.7946 7.244C79.7946 5.942 80.7326 5.172 82.8186 5.172C84.9046 5.172 85.8426 5.942 85.8426 7.244C85.8426 8.56 84.9046 9.316 82.8186 9.316ZM95.9758 11.5H98.8738V8.938H103.83C106.252 8.938 107.778 7.552 107.778 5.214C107.778 2.89 106.252 1.504 103.83 1.504H95.9758V11.5ZM103.032 3.968C103.816 3.968 104.754 3.968 104.754 5.214C104.754 6.474 103.816 6.474 103.032 6.474H98.8738V3.968H103.032ZM115.034 9.708C113.102 9.708 111.954 9.232 111.744 7.846H120.676C120.676 4.346 118.268 2.904 114.81 2.904C111.45 2.904 108.972 4.374 108.972 7.342C108.972 10.31 111.324 11.78 114.95 11.78C118.254 11.78 120.046 10.604 120.592 8.602H117.89C117.554 9.26 116.798 9.708 115.034 9.708ZM114.81 4.794C116.434 4.794 117.47 5.214 117.834 6.306H111.856C112.22 5.214 113.256 4.794 114.81 4.794ZM128.568 2.904C127.112 2.904 125.964 3.394 124.914 4.878V3.184H122.212V11.5H124.914V6.992C126.272 5.55 127.462 5.27 128.498 5.27C129.198 5.27 129.786 5.354 130.668 5.648V3.282C130.01 3.044 129.408 2.904 128.568 2.904ZM139.752 3.184L134.936 6.628V0.3H132.234V11.5H134.936V9.582L136.98 8.14L140.452 11.5H143.966L138.954 6.726L143.966 3.184H139.752Z" fill="black"/>
</svg>
