<svg width="45" height="40" viewBox="0 0 45 40" fill="none" xmlns="http://www.w3.org/2000/svg">
<g opacity="0.2" clip-path="url(#clip0_1_53)">
<path d="M0 25.1795L15.4359 21.0886L24 27.8982L8.56472 31.9892H8.56409L0 25.1795Z" fill="url(#paint0_linear_1_53)"/>
<path d="M0 18.6407L15.4359 14.5497L24 21.3593L8.56472 25.4503H8.56409L0 18.6407Z" fill="url(#paint1_linear_1_53)"/>
<path d="M0 12.091L15.4359 8L24 14.8096L8.56472 18.9006H8.56409L0 12.091Z" fill="url(#paint2_linear_1_53)"/>
<path d="M0 12.091L8.56409 18.9006H8.56472V32L0 25.1897" fill="black"/>
</g>
<rect x="44" width="1" height="40" fill="black" fill-opacity="0.06"/>
<defs>
<linearGradient id="paint0_linear_1_53" x1="-3.63651e-07" y1="25.1483" x2="24" y2="25.1483" gradientUnits="userSpaceOnUse">
<stop/>
<stop offset="1" stop-color="#E9E9E9"/>
</linearGradient>
<linearGradient id="paint1_linear_1_53" x1="14.607" y1="25.4429" x2="14.607" y2="14.5571" gradientUnits="userSpaceOnUse">
<stop/>
<stop offset="1" stop-color="#E9E9E9"/>
</linearGradient>
<linearGradient id="paint2_linear_1_53" x1="-3.63651e-07" y1="12.0598" x2="24" y2="12.0598" gradientUnits="userSpaceOnUse">
<stop offset="0.386714"/>
<stop offset="1" stop-color="#E9E9E9"/>
</linearGradient>
<clipPath id="clip0_1_53">
<rect width="24" height="24" fill="white" transform="translate(0 8)"/>
</clipPath>
</defs>
</svg>
