<svg width="46" height="46" viewBox="0 0 46 46" fill="none" xmlns="http://www.w3.org/2000/svg">
<circle cx="23" cy="23" r="23" fill="black" fill-opacity="0.04"/>
<mask id="mask0_1_17" style="mask-type:alpha" maskUnits="userSpaceOnUse" x="11" y="11" width="24" height="24">
<rect x="11" y="11" width="24" height="24" fill="#D9D9D9"/>
</mask>
<g mask="url(#mask0_1_17)">
<path d="M27.9999 20.5C27.9999 19.8 27.8999 19.2 27.5999 18.6C27.3999 18 26.9999 17.4 26.4999 17C25.9999 16.5 25.4999 16.2 24.8999 15.9C24.2999 15.6 23.5999 15.5 22.9999 15.5C21.6999 15.5 20.3999 16 19.4999 17C18.9999 17.4 18.5999 18 18.3999 18.6C18.0999 19.2 17.9999 19.8 17.9999 20.5H12.9999C12.9999 23.2 14.0999 25.7 15.8999 27.6C17.7999 29.5 20.2999 30.5 22.9999 30.5C25.6999 30.5 28.1999 29.4 30.0999 27.6C31.9999 25.7 32.9999 23.2 32.9999 20.5H27.9999V20.5ZM20.6999 23L21.6999 20.5C21.3999 20.2 21.2999 19.8 21.2999 19.4C21.2999 19 21.4999 18.5 21.7999 18.2C22.0999 17.9 22.4999 17.7 22.9999 17.7C23.4999 17.7 23.8999 17.9 24.1999 18.2C24.4999 18.5 24.6999 18.9 24.6999 19.4C24.6999 19.8 24.5999 20.2 24.2999 20.5L25.2999 23H20.6999Z" fill="black" fill-opacity="0.2"/>
</g>
</svg>
