<svg width="142" height="16" viewBox="0 0 142 16" fill="none" xmlns="http://www.w3.org/2000/svg">
<path d="M0.865414 11.5H3.76341V8.938H8.71941C11.1414 8.938 12.6674 7.552 12.6674 5.214C12.6674 2.89 11.1414 1.504 8.71941 1.504H0.865414V11.5ZM7.92141 3.968C8.70541 3.968 9.64341 3.968 9.64341 5.214C9.64341 6.474 8.70541 6.474 7.92141 6.474H3.76341V3.968H7.92141ZM19.9241 9.708C17.9921 9.708 16.8441 9.232 16.6341 7.846H25.5661C25.5661 4.346 23.1581 2.904 19.7001 2.904C16.3401 2.904 13.8621 4.374 13.8621 7.342C13.8621 10.31 16.2141 11.78 19.8401 11.78C23.1441 11.78 24.9361 10.604 25.4821 8.602H22.7801C22.4441 9.26 21.6881 9.708 19.9241 9.708ZM19.7001 4.794C21.3241 4.794 22.3601 5.214 22.7241 6.306H16.7461C17.1101 5.214 18.1461 4.794 19.7001 4.794ZM33.4577 2.904C32.0017 2.904 30.8537 3.394 29.8037 4.878V3.184H27.1017V11.5H29.8037V6.992C31.1617 5.55 32.3517 5.27 33.3877 5.27C34.0877 5.27 34.6757 5.354 35.5577 5.648V3.282C34.8997 3.044 34.2977 2.904 33.4577 2.904ZM44.6412 3.184L39.8252 6.628V0.3H37.1232V11.5H39.8252V9.582L41.8692 8.14L45.3412 11.5H48.8552L43.8432 6.726L48.8552 3.184H44.6412ZM49.1356 8.7C49.1776 11.136 51.7256 11.78 55.1836 11.78C58.3616 11.78 60.5316 11.234 60.5316 8.882C60.5316 6.656 58.4596 6.558 55.1976 6.278C52.6356 6.054 52.2436 5.956 52.2436 5.438C52.2436 4.976 52.7896 4.696 54.6796 4.696C56.5556 4.696 57.3676 4.906 57.4096 5.676H60.2516C60.0976 3.506 57.7456 2.904 54.7916 2.904C51.8656 2.904 49.4016 3.45 49.4016 5.634C49.4016 7.552 51.1376 7.86 54.6376 8.112C57.2276 8.294 57.6896 8.35 57.6896 9.008C57.6896 9.624 57.3116 9.904 55.0436 9.904C52.6636 9.904 52.0056 9.526 51.9636 8.7H49.1356ZM67.7209 1.504V11.5H77.5489V9.036H70.6189V1.504H67.7209ZM78.9865 2.26H81.6885V0.3H78.9865V2.26ZM78.9865 11.5H81.6885V3.184H78.9865V11.5ZM90.3423 2.904C88.6063 2.904 87.1223 3.45 86.2823 4.654V0.3H83.5803V11.5H86.2823V10.03C87.1223 11.234 88.6063 11.78 90.3423 11.78C92.7783 11.78 95.1583 10.576 95.1583 7.342C95.1583 4.108 92.7783 2.904 90.3423 2.904ZM89.3203 9.512C87.3323 9.512 86.2823 8.756 86.2823 7.342C86.2823 5.942 87.3323 5.172 89.3203 5.172C91.3223 5.172 92.3303 5.942 92.3303 7.342C92.3303 8.756 91.3223 9.512 89.3203 9.512ZM103.048 2.904C101.592 2.904 100.444 3.394 99.3936 4.878V3.184H96.6916V11.5H99.3936V6.992C100.752 5.55 101.942 5.27 102.978 5.27C103.678 5.27 104.266 5.354 105.148 5.648V3.282C104.49 3.044 103.888 2.904 103.048 2.904ZM112.393 2.904C110.321 2.904 108.487 3.212 106.709 3.66L107.227 5.564C109.173 5.06 110.573 4.878 111.945 4.878C113.317 4.878 114.857 5.144 114.941 6.6C113.765 6.32 112.379 6.096 110.909 6.096C108.459 6.096 106.023 6.726 106.023 8.966C106.023 10.926 107.577 11.682 109.901 11.682C111.595 11.682 113.401 11.262 114.941 10.422V11.5H117.643V7.244C117.615 4.038 115.893 2.904 112.393 2.904ZM110.811 9.708C109.495 9.708 108.865 9.512 108.865 8.826C108.865 8.14 109.663 7.874 111.245 7.874C112.589 7.874 113.849 8.056 114.941 8.294V9.008C113.807 9.316 111.931 9.708 110.811 9.708ZM125.702 2.904C124.246 2.904 123.098 3.394 122.048 4.878V3.184H119.346V11.5H122.048V6.992C123.406 5.55 124.596 5.27 125.632 5.27C126.332 5.27 126.92 5.354 127.802 5.648V3.282C127.144 3.044 126.542 2.904 125.702 2.904ZM135.156 10.058L131.656 3.184H128.856L133.084 11.5H134.4C133.714 12.774 133.196 12.97 132.048 12.97C131.46 12.97 130.634 12.858 129.472 12.606V14.72C130.466 14.986 131.488 15.14 132.468 15.14C134.848 15.14 136.01 13.852 137.13 11.64L141.456 3.184H138.67L135.156 10.058Z" fill="black"/>
</svg>
