<svg width="20" height="20" viewBox="0 0 20 20" fill="none" xmlns="http://www.w3.org/2000/svg">
<mask id="mask0_37_8" style="mask-type:alpha" maskUnits="userSpaceOnUse" x="0" y="0" width="20" height="20">
<rect width="20" height="20" fill="#D9D9D9"/>
</mask>
<g mask="url(#mask0_37_8)">
<path d="M7.16603 18.75L5.58203 16.083L2.56103 15.417L2.87403 12.333L0.832031 10L2.87403 7.667L2.56103 4.583L5.58203 3.917L7.16603 1.25L9.99903 2.458L12.832 1.25L14.416 3.917L17.437 4.583L17.145 7.667L19.166 10L17.145 12.333L17.437 15.417L14.416 16.083L12.832 18.75L9.99903 17.542L7.16603 18.75Z" fill="url(#paint0_linear_37_8)"/>
<g filter="url(#filter0_d_37_8)">
<path d="M7.17093 14.1666L7.92317 11.0878L5.41666 9.01609L8.71093 8.73831L9.99999 5.83331L11.2891 8.74998L14.5833 9.01609L12.0768 11.0878L12.8291 14.1666L9.99999 12.5344L7.17093 14.1666Z" fill="white"/>
</g>
</g>
<defs>
<filter id="filter0_d_37_8" x="-4.58334" y="-0.166687" width="29.1667" height="28.3333" filterUnits="userSpaceOnUse" color-interpolation-filters="sRGB">
<feFlood flood-opacity="0" result="BackgroundImageFix"/>
<feColorMatrix in="SourceAlpha" type="matrix" values="0 0 0 0 0 0 0 0 0 0 0 0 0 0 0 0 0 0 127 0" result="hardAlpha"/>
<feOffset dy="4"/>
<feGaussianBlur stdDeviation="5"/>
<feComposite in2="hardAlpha" operator="out"/>
<feColorMatrix type="matrix" values="0 0 0 0 0 0 0 0 0 0 0 0 0 0 0 0 0 0 0.1 0"/>
<feBlend mode="normal" in2="BackgroundImageFix" result="effect1_dropShadow_37_8"/>
<feBlend mode="normal" in="SourceGraphic" in2="effect1_dropShadow_37_8" result="shape"/>
</filter>
<linearGradient id="paint0_linear_37_8" x1="6.2589" y1="-57.7174" x2="22.8287" y2="-54.2078" gradientUnits="userSpaceOnUse">
<stop stop-color="#FD8DDD"/>
<stop offset="1" stop-color="#8958E1"/>
</linearGradient>
</defs>
</svg>
