<svg width="46" height="46" viewBox="0 0 46 46" fill="none" xmlns="http://www.w3.org/2000/svg">
<rect width="46" height="46" rx="10" fill="#F0F0F0"/>
<path d="M23.0001 33.2666C29.5335 33.2666 34.8668 27.9332 34.8668 21.5332C34.8668 14.9999 29.5335 9.66656 23.0001 9.66656C16.4668 9.66656 11.1335 14.9999 11.1335 21.3999C11.1335 27.9332 16.4668 33.2666 23.0001 33.2666Z" fill="url(#paint0_linear_3_8)"/>
<path d="M23.0001 32.3335C29.1335 32.3335 34.0668 27.4002 34.0668 21.4002C34.0668 15.4002 29.1335 10.4669 23.0001 10.4669C16.8668 10.4669 11.9335 15.4002 11.9335 21.4002C11.9335 27.4002 16.8668 32.3335 23.0001 32.3335Z" fill="#303030"/>
<path d="M23.0001 28.3335C26.8668 28.3335 29.9335 25.2669 29.9335 21.4002C29.9335 17.5335 26.8668 14.4669 23.0001 14.4669C19.1335 14.4669 16.0668 17.5335 16.0668 21.4002C16.0668 25.2669 19.1335 28.3335 23.0001 28.3335Z" fill="url(#paint1_linear_3_8)"/>
<path d="M27.0001 19.7999C27.0001 18.1999 25.5335 17.5333 23.2668 17.5333C21.0001 17.5333 19.2668 18.3333 19.1335 20.3333H21.4001C21.4001 19.3999 22.0668 18.9999 23.4001 18.9999C24.6001 18.9999 25.0001 19.2666 25.0001 19.7999C25.0001 21.3999 19.1335 20.8666 19.0001 23.9333V24.9999H27.0001V23.3999H21.5335C21.9335 22.1999 27.0001 22.5999 27.0001 19.7999Z" fill="#303030"/>
<defs>
<linearGradient id="paint0_linear_3_8" x1="23.0001" y1="33.2042" x2="23.0001" y2="9.66656" gradientUnits="userSpaceOnUse">
<stop stop-color="#9D9D9C"/>
<stop offset="1" stop-color="#EDEDED"/>
</linearGradient>
<linearGradient id="paint1_linear_3_8" x1="23.0001" y1="28.3425" x2="23.0001" y2="14.529" gradientUnits="userSpaceOnUse">
<stop stop-color="#9D9D9C"/>
<stop offset="1" stop-color="#EDEDED"/>
</linearGradient>
</defs>
</svg>
