<svg width="194" height="46" viewBox="0 0 194 46" fill="none" xmlns="http://www.w3.org/2000/svg">
<circle cx="23" cy="23" r="23" fill="black" fill-opacity="0.04"/>
<mask id="mask0_1_31" style="mask-type:alpha" maskUnits="userSpaceOnUse" x="11" y="11" width="24" height="24">
<path d="M11 11H35V35H11V11Z" fill="#D9D9D9"/>
</mask>
<g mask="url(#mask0_1_31)">
<path d="M22 14H14V22H22V14Z" fill="black" fill-opacity="0.2"/>
<path d="M32 14H24V22H32V14Z" fill="black" fill-opacity="0.2"/>
<path d="M22 24H14V32H22V24Z" fill="black" fill-opacity="0.2"/>
<path d="M31 25H25V31H31V25Z" fill="black" fill-opacity="0.2"/>
</g>
<path d="M120 8.9H124.5V11.5H120V14.5C120 15.9 120.4 16.5 121.9 16.5C122.7 16.5 123.3 16.4 124.5 16.2V18.9C123.4 19.1 122.3 19.3 121.1 19.3C118.1 19.3 116.7 18.2 116.7 15.5V11.4H114.3V8.9H116.7V6.9L120 6V8.9Z" fill="black"/>
<path d="M56 14C56 17.6 58.7 19.4 63.1 19.4C67.1 19.4 69.6 18 70.1 15H66.7C66.3 16.1 65.2 16.7 63.1 16.7C60.7 16.7 59.3 15.9 59.3 13.9C59.3 12 60.7 11.1 63.1 11.1C65.3 11.1 66.4 11.7 66.7 12.8H70.1C69.6 9.89999 67.1 8.39999 63.1 8.39999C58.7 8.59999 56 10.4 56 14Z" fill="black"/>
<path d="M79.8 8.60001C78 8.60001 76.6 9.20001 75.4 11V8.90001H72V19H75.3V13.6C77 11.8 78.4 11.5 79.7 11.5C80.6 11.5 81.3 11.6 82.3 12V9.10001C81.5 8.80001 80.8 8.60001 79.8 8.60001Z" fill="black"/>
<path fill-rule="evenodd" clip-rule="evenodd" d="M87 14.6C87.3 16.3 88.7 16.9 91 16.9C93.1 16.9 94 16.3 94.6 15.5H97.9C97.2 18 95 19.4 91 19.4C86.6 19.4 83.7 17.6 83.7 14C83.7 10.4 86.7 8.60001 90.8 8.60001C95 8.60001 97.9 10.3 97.9 14.6H87ZM94.4 12.7C93.9 11.4 92.7 10.9 90.7 10.9C88.8 10.9 87.5 11.4 87.1 12.7H94.4Z" fill="black"/>
<path fill-rule="evenodd" clip-rule="evenodd" d="M106.9 8.60001C104.4 8.60001 102.2 9.00001 100 9.50001L100.6 11.8C103 11.2 104.7 11 106.4 11C108 11 109.9 11.3 110 13.1C108.6 12.8 106.9 12.5 105.1 12.5C102.1 12.5 99.2 13.3 99.2 16C99.2 18.4 101.1 19.3 103.9 19.3C106 19.3 108.2 18.8 110 17.8V19H113.3V13.9C113.2 10 111.2 8.60001 106.9 8.60001ZM105 16.9C103.4 16.9 102.6 16.7 102.6 15.8C102.6 14.9 103.6 14.6 105.5 14.6C107.1 14.6 108.7 14.8 110 15.1V16C108.6 16.4 106.3 16.9 105 16.9Z" fill="black"/>
<path fill-rule="evenodd" clip-rule="evenodd" d="M133.4 19.4C138 19.4 140.6 17.5 140.6 14C140.6 10.5 138 8.60001 133.4 8.60001C128.8 8.60001 126.2 10.5 126.2 14C126.2 17.5 128.8 19.4 133.4 19.4ZM133.4 16.8C130.9 16.8 129.7 15.9 129.7 14C129.7 12.1 131 11.2 133.4 11.2C135.9 11.2 137.1 12.1 137.1 14C137.1 15.9 135.9 16.8 133.4 16.8Z" fill="black"/>
<path d="M145.8 11C147 9.20001 148.4 8.60001 150.2 8.60001C151.2 8.60001 151.9 8.80001 152.8 9.10001V12C151.8 11.6 151.1 11.5 150.2 11.5C148.9 11.5 147.5 11.8 145.8 13.6V19H142.5V8.90001H145.8V11Z" fill="black"/>
<path d="M112.4 28.8C109.6 28.8 107.8 29.9 106.5 31.4V25.6H103.2V39.2H106.5V35.2C106.5 32.7 108.2 31.5 110.9 31.5C113.6 31.5 114.5 32.7 114.5 35V39.2H117.8V34C117.7 30.2 115.6 28.8 112.4 28.8Z" fill="black"/>
<path fill-rule="evenodd" clip-rule="evenodd" d="M61.9 28.8C63.9317 28.8 65.6827 29.3616 66.7 30.7566V25.7H70V39.3H66.8V37.5C65.8 38.9 64 39.6 61.9 39.6C59 39.6 56.1 38.1 56.1 34.2C56.1 30.3 58.9 28.8 61.9 28.8ZM63.1 36.8C60.7 36.8 59.5 35.9 59.5 34.2C59.5 32.5 60.7 31.6 63.1 31.6C65.5 31.6 66.8 32.5 66.8 34.2C66.8 35.9 65.5 36.8 63.1 36.8Z" fill="black"/>
<path fill-rule="evenodd" clip-rule="evenodd" d="M79.6 28.8C77.1 28.8 74.9 29.2 72.7 29.7L73.3 32C75.7 31.4 77.4 31.2 79 31.2C80.7 31.2 82.5 31.5 82.6 33.3C81.2 33 79.5 32.7 77.7 32.7C74.7 32.7 71.8 33.5 71.8 36.2C71.8 38.6 73.7 39.5 76.5 39.5C78.6 39.5 80.7 39 82.6 38V39.3H86V34.1C85.9 30.2 83.8 28.8 79.6 28.8ZM77.7 37.1C76.1 37.1 75.3 36.9 75.3 36C75.3 35.2 76.3 34.8 78.2 34.8C79.8 34.8 81.4 35 82.7 35.3V36.2C81.3 36.6 79 37.1 77.7 37.1Z" fill="black"/>
<path d="M94.9 39.6C90.7 39.6 87.7 38.9 87.6 35.9V35.8H91C91 36.8 91.8 37.3 94.7 37.3C97.4 37.3 97.9 36.9 97.9 36.2C97.9 35.4 97.3 35.3 94.2 35.1C90 34.8 87.9 34.4 87.9 32.1C87.9 29.5 90.9 28.8 94.4 28.8C98 28.8 100.8 29.6 101 32.2H97.6C97.6 31.3 96.6 31 94.3 31C92 31 91.3 31.3 91.3 31.9C91.3 32.5 91.8 32.6 94.9 32.9C95.104 32.9204 95.3041 32.94 95.5002 32.9592C99.1485 33.317 101.4 33.5377 101.4 36.1C101.4 38.9 98.8 39.6 94.9 39.6Z" fill="black"/>
<path fill-rule="evenodd" clip-rule="evenodd" d="M123.4 30.9C124.4 29.5 126.2 28.8 128.3 28.8C131.2 28.8 134.1 30.3 134.1 34.1C134.1 38 131.3 39.5 128.3 39.5C126.2 39.5 124.4 38.9 123.4 37.4V39.2H120.1V25.6H123.4V30.9ZM123.3 34.2C123.3 35.9 124.6 36.8 127 36.8C129.4 36.8 130.7 35.9 130.6 34.2C130.6 32.5 129.4 31.6 127 31.6C124.6 31.6 123.3 32.5 123.3 34.2Z" fill="black"/>
<path fill-rule="evenodd" clip-rule="evenodd" d="M142.8 39.6C147.4 39.6 150 37.7 150 34.2C150 30.8 147.4 28.8 142.8 28.8C138.2 28.8 135.7 30.7 135.7 34.2C135.7 37.6 138.3 39.6 142.8 39.6ZM142.8 37C140.3 37 139.1 36.2 139.1 34.3C139.1 32.4 140.4 31.6 142.8 31.6C145.3 31.6 146.5 32.5 146.5 34.3C146.6 36.1 145.3 37 142.8 37Z" fill="black"/>
<path fill-rule="evenodd" clip-rule="evenodd" d="M152.1 29.7C154.3 29.2 156.5 28.8 159 28.8C163.3 28.8 165.4 30.2 165.3 34.1V39.3H162V38C160.1 39 158 39.5 155.9 39.5C153.1 39.5 151.2 38.6 151.2 36.2C151.2 33.5 154.1 32.7 157.1 32.7C158.9 32.7 160.6 33 162 33.3C161.9 31.5 160.1 31.2 158.4 31.2C156.8 31.2 155.1 31.4 152.7 32L152.1 29.7ZM154.7 36C154.7 36.9 155.5 37.1 157.1 37.1C158.5 37.1 160.8 36.6 162.1 36.2V35.3C160.8 35 159.2 34.8 157.6 34.8C155.7 34.8 154.7 35.2 154.7 36Z" fill="black"/>
<path d="M175.2 28.8C173.4 28.8 172 29.4 170.8 31.2V29.1H167.5V39.2H170.8V33.7C172.4 32 173.9 31.6 175.1 31.6C175.9 31.6 176.7 31.7 177.7 32.1V29.2C177.633 29.1832 177.567 29.1665 177.501 29.1499C176.781 28.9679 176.116 28.8 175.2 28.8Z" fill="black"/>
<path fill-rule="evenodd" clip-rule="evenodd" d="M184.9 28.8C187 28.8 188.8 29.4 189.8 30.9V25.7H193.1V39.3H189.8V37.5C188.8 38.9 187 39.6 184.9 39.6C182 39.6 179.1 38.1 179.1 34.2C179.1 30.3 181.9 28.8 184.9 28.8ZM182.5 34.2C182.5 35.9 183.7 36.8 186.1 36.8C188.5 36.8 189.8 35.9 189.8 34.2C189.8 32.5 188.5 31.6 186.1 31.6C183.7 31.6 182.5 32.5 182.5 34.2Z" fill="black"/>
</svg>
