<svg width="46" height="46" viewBox="0 0 46 46" fill="none" xmlns="http://www.w3.org/2000/svg">
<circle cx="23" cy="23" r="23" fill="black" fill-opacity="0.04"/>
<mask id="mask0_1_9" style="mask-type:alpha" maskUnits="userSpaceOnUse" x="11" y="11" width="24" height="24">
<rect x="11" y="11" width="24" height="24" fill="#D9D9D9"/>
</mask>
<g mask="url(#mask0_1_9)">
<path d="M27 24.5C27.4333 24.5 27.7917 24.3583 28.075 24.075C28.3583 23.7917 28.5 23.4333 28.5 23C28.5 22.5667 28.3583 22.2083 28.075 21.925C27.7917 21.6417 27.4333 21.5 27 21.5C26.5667 21.5 26.2083 21.6417 25.925 21.925C25.6417 22.2083 25.5 22.5667 25.5 23C25.5 23.4333 25.6417 23.7917 25.925 24.075C26.2083 24.3583 26.5667 24.5 27 24.5ZM24 28C23.45 28 22.9793 27.8043 22.588 27.413C22.196 27.021 22 26.55 22 26V20C22 19.45 22.196 18.979 22.588 18.587C22.9793 18.1957 23.45 18 24 18H31C31.55 18 32.021 18.1957 32.413 18.587C32.8043 18.979 33 19.45 33 20V26C33 26.55 32.8043 27.021 32.413 27.413C32.021 27.8043 31.55 28 31 28H24ZM16 32C15.45 32 14.979 31.8043 14.587 31.413C14.1957 31.021 14 30.55 14 30V16C14 15.45 14.1957 14.979 14.587 14.587C14.979 14.1957 15.45 14 16 14H30C30.55 14 31.021 14.1957 31.413 14.587C31.8043 14.979 32 15.45 32 16H24C22.8167 16 21.8543 16.3707 21.113 17.112C20.371 17.854 20 18.8167 20 20V26C20 27.1833 20.371 28.1457 21.113 28.887C21.8543 29.629 22.8167 30 24 30H32C32 30.55 31.8043 31.021 31.413 31.413C31.021 31.8043 30.55 32 30 32H16Z" fill="black" fill-opacity="0.2"/>
</g>
</svg>
